Coordinates
version=1
nRows=60
nColumns=12
inDegrees=yes

Units are S.I. units (second, meters, Newtons, ...)
Angles are in degrees

endheader
time	SC_y	SC_z	SC_x	AC_y	AC_z	AC_x	GH_y	GH_z	GH_yy	EL_x	PS_y
       0.0              -41.67          14.41          37.87          53.17         -19.77          13.41          78.65          80.23          80.41          93.89           40.4
   0.03396              -41.68          14.41          37.87          53.17         -19.76          13.41          78.63          80.22          80.42          93.88           40.4
   0.06791              -41.68          14.41          37.88          53.17         -19.76           13.4          78.61           80.2          80.42          93.87          40.41
    0.1019              -41.68          14.41          37.88          53.16         -19.76           13.4          78.59          80.19          80.43          93.87          40.41
    0.1358              -41.68          14.41          37.88          53.16         -19.75          13.39          78.57          80.18          80.43          93.86          40.42
    0.1698              -41.68          14.41          37.88          53.16         -19.75          13.38          78.55          80.17          80.44          93.85          40.42
    0.2037              -41.68          14.41          37.88          53.16         -19.74          13.38          78.53          80.16          80.44          93.84          40.43
    0.2377              -41.68          14.41          37.88          53.16         -19.74          13.37          78.51          80.14          80.45          93.82          40.43
    0.2716              -41.69          14.41          37.89          53.16         -19.73          13.36          78.48          80.12          80.46          93.81          40.44
    0.3056              -41.69          14.41          37.89          53.16         -19.73          13.36          78.45          80.11          80.47           93.8          40.44
    0.3396              -41.69          14.41          37.89          53.16         -19.72          13.35          78.42          80.09          80.47          93.79          40.45
    0.3735              -41.69           14.4          37.89          53.16         -19.72          13.34          78.39          80.07          80.48          93.77          40.46
    0.4075              -41.69           14.4          37.89          53.16         -19.71          13.33          78.36          80.05          80.49          93.75          40.46
    0.4414              -41.69           14.4           37.9          53.16          -19.7          13.32          78.32          80.03           80.5          93.74          40.47
    0.4754               -41.7           14.4           37.9          53.16         -19.69          13.31          78.28           80.0          80.52          93.72          40.48
    0.5093               -41.7           14.4           37.9          53.16         -19.68          13.29          78.24          79.98          80.53           93.7          40.49
    0.5433               -41.7           14.4          37.91          53.15         -19.67          13.28          78.19          79.95          80.54          93.67           40.5
    0.5772              -41.71           14.4          37.91          53.15         -19.66          13.27          78.14          79.92          80.56          93.65          40.51
    0.6112              -41.71           14.4          37.92          53.15         -19.65          13.25          78.08          79.88          80.57          93.62          40.53
    0.6451              -41.71           14.4          37.92          53.15         -19.64          13.23          78.02          79.84          80.59          93.59          40.54
    0.6791              -41.72           14.4          37.93          53.15         -19.63          13.21          77.95           79.8          80.61          93.56          40.56
    0.7131              -41.72          14.39          37.93          53.15         -19.61          13.19          77.88          79.76          80.63          93.53          40.57
     0.747              -41.73          14.39          37.94          53.14          -19.6          13.17          77.79          79.71          80.66          93.49          40.59
     0.781              -41.73          14.39          37.94          53.14         -19.58          13.14           77.7          79.65          80.68          93.45          40.61
    0.8149              -41.74          14.39          37.95          53.14         -19.56          13.12           77.6          79.59          80.71           93.4          40.63
    0.8489              -41.75          14.39          37.96          53.14         -19.53          13.08          77.49          79.52          80.74          93.34          40.66
    0.8828              -41.75          14.38          37.97          53.13         -19.51          13.05          77.36          79.44          80.78          93.28          40.69
    0.9168              -41.76          14.38          37.98          53.13         -19.48          13.01          77.22          79.36          80.82          93.22          40.72
    0.9507              -41.77          14.38          37.99          53.12         -19.45          12.96          77.06          79.26          80.87          93.14          40.76
    0.9847              -41.78          14.37          38.01          53.12         -19.41          12.91          76.87          79.15          80.92          93.05           40.8
     1.019               -41.8          14.37          38.02          53.11         -19.37          12.85          76.66          79.02          80.98          92.96          40.84
     1.053              -41.81          14.37          38.04          53.11         -19.32          12.78          76.42          78.87          81.05          92.84           40.9
     1.087              -41.83          14.36          38.06           53.1         -19.27          12.71          76.15          78.71          81.13          92.71          40.96
     1.121              -41.85          14.35          38.09          53.09          -19.2          12.61          75.82          78.51          81.22          92.56          41.03
     1.154              -41.87          14.35          38.11          53.08         -19.13          12.51          75.45          78.28          81.33          92.38          41.11
     1.188               -41.9          14.34          38.15          53.07         -19.04          12.38           75.0          78.01          81.46          92.17          41.21
     1.222              -41.93          14.33          38.19          53.06         -18.93          12.23          74.47          77.69          81.61          91.92          41.33
     1.256              -41.97          14.32          38.24          53.04          -18.8          12.05          73.84          77.31          81.79          91.62          41.47
      1.29              -42.01           14.3          38.29          53.02         -18.65          11.84          73.08          76.84          82.01          91.26          41.64
     1.324              -42.07          14.28          38.36           53.0         -18.46          11.57          72.14          76.27          82.28          90.82          41.85
     1.358              -42.14          14.26          38.45          52.97         -18.23          11.25          70.99          75.57          82.61          90.28          42.11
     1.392              -42.23          14.23          38.56          52.93         -17.94          10.84          69.55          74.69          83.02           89.6          42.43
     1.426              -42.34           14.2           38.7          52.88         -17.58          10.33          67.73          73.59          83.54          88.74          42.84
      1.46              -42.48          14.15          38.87          52.82         -17.12           9.68          65.43          72.19           84.2          87.65          43.35
     1.494              -42.66          14.09           39.1          52.75         -16.53          8.847          62.48           70.4          85.05          86.26          44.01
     1.528              -42.89          14.02          39.38          52.65         -15.77          7.778          58.69           68.1          86.13          84.48          44.85
     1.562              -43.18          13.93          39.75          52.52          -14.8          6.413          53.86          65.16          87.52          82.19          45.93
     1.596              -43.55          13.81          40.21          52.37         -13.58          4.697          47.77          61.46          89.27          79.33          47.29
      1.63               -44.0          13.66          40.77          52.17          -12.1          2.605          40.36          56.96          91.39          75.83          48.94
     1.664              -44.52           13.5          41.42          51.95         -10.37         0.1801          31.77          51.74          93.86          71.78          50.86
     1.698              -45.09          13.31          42.12          51.71          -8.51         -2.445          22.47          46.08          96.52          67.39          52.93
     1.732              -45.65          13.13          42.83          51.47         -6.646         -5.071          13.17          40.43          99.19           63.0          55.01
     1.766              -46.17          12.97          43.48          51.25         -4.925         -7.495          4.582          35.21          101.7          58.95          56.93
       1.8              -46.62          12.82          44.04          51.06          -3.44         -9.587         -2.829           30.7          103.8          55.45          58.58
     1.834              -46.99           12.7           44.5           50.9         -2.221          -11.3          -8.91          27.01          105.5          52.58          59.94
     1.868              -47.29          12.61          44.86          50.77         -1.252         -12.67         -13.75          24.07          106.9           50.3          61.02
     1.901              -47.51          12.54          45.15          50.67        -0.4934         -13.74         -17.53          21.77          108.0          48.51          61.86
     1.935              -47.69          12.48          45.37           50.6        0.09782         -14.57         -20.48          19.97          108.8          47.12          62.52
     1.969              -47.83          12.43          45.55          50.54         0.5597         -15.22         -22.79          18.57          109.5          46.04          63.03
     2.003              -47.94           12.4          45.68          50.49         0.9231         -15.73          -24.6          17.47          110.0          45.18          63.44
